<?xml version="1.0" standalone="no"?>
<!DOCTYPE svg PUBLIC "-//W3C//DTD SVG 20010904//EN"
 "http://www.w3.org/TR/2001/REC-SVG-20010904/DTD/svg10.dtd">
<svg version="1.0" xmlns="http://www.w3.org/2000/svg"
 width="1008.000000pt" height="1008.000000pt" viewBox="0 0 1008.000000 1008.000000"
 preserveAspectRatio="xMidYMid meet">
<metadata>
Created by potrace 1.14, written by Peter Selinger 2001-2017
</metadata>
<g transform="translate(0.000000,1008.000000) scale(0.100000,-0.100000)"
fill="#000000" stroke="none">
<path d="M348 8755 c-161 -44 -291 -178 -327 -336 -7 -29 -10 -1224 -10 -3559
0 -2907 2 -3518 13 -3532 12 -17 98 -18 1553 -18 1479 0 1541 1 1556 18 16 17
17 277 17 3533 0 3789 3 3555 -51 3666 -29 60 -131 162 -192 192 -109 53 -64
51 -1332 50 -927 -1 -1190 -4 -1227 -14z m2504 -123 c60 -29 81 -48 140 -121
10 -11 27 -48 38 -81 20 -59 20 -79 20 -3540 l0 -3480 -1470 0 -1470 0 2 3498
3 3497 26 55 c45 97 112 157 212 191 49 18 117 18 1242 16 l1190 -2 67 -33z"/>
<path d="M1056 8022 l-48 -3 6 -247 c13 -529 35 -1241 39 -1293 1 -9 7 -15 14
-12 6 3 10 10 7 17 -8 21 56 13 73 -9 15 -20 15 -20 9 1 -5 17 -2 20 25 20 22
0 34 -6 41 -22 6 -12 21 -27 35 -33 13 -6 22 -15 19 -19 -3 -5 1 -9 9 -9 8 0
16 6 19 14 7 16 33 17 38 1 3 -7 19 -13 36 -14 l32 -2 -23 17 c-25 19 -73 26
-82 11 -3 -6 -11 -10 -18 -10 -8 0 -8 3 1 12 7 7 12 16 12 22 0 5 -6 2 -13 -7
-11 -16 -14 -16 -35 -2 -12 9 -22 22 -22 29 0 20 61 12 78 -10 14 -18 14 -18
8 2 -6 18 -2 21 21 20 16 -1 34 -5 41 -9 7 -5 12 -3 12 3 0 6 5 8 11 5 6 -4 8
-10 5 -13 -3 -3 1 -14 11 -24 26 -29 -3 -21 -33 9 -15 15 -25 20 -22 12 2 -8
19 -24 36 -35 17 -12 28 -25 24 -29 -4 -4 3 -3 15 4 28 14 36 14 27 -1 -4 -7
-3 -8 5 -4 6 4 9 10 7 14 -2 4 7 15 20 25 28 21 32 12 7 -15 -9 -10 -14 -21
-11 -24 3 -3 16 11 28 31 12 20 20 39 16 42 -3 4 -6 1 -6 -6 0 -7 -4 -10 -9
-6 -5 3 -17 -2 -26 -11 -19 -19 -33 -11 -17 9 9 10 8 14 -3 14 -8 0 -12 -3
-10 -7 2 -4 -8 -7 -24 -7 -15 0 -28 5 -28 11 0 8 35 11 104 11 60 0 104 4 106
10 2 5 2 28 1 50 -2 22 -5 136 -8 253 -4 156 -2 212 6 210 7 -3 14 -10 16 -18
3 -7 0 -10 -5 -7 -5 3 -10 0 -10 -8 0 -8 5 -11 10 -8 6 4 8 -1 4 -11 -4 -11
-3 -15 4 -11 6 4 8 13 5 21 -3 7 6 27 21 44 31 38 53 26 48 -26 -2 -22 0 -32
7 -28 6 4 14 0 19 -7 7 -11 9 -11 9 -1 0 7 -7 15 -15 18 -8 4 -15 14 -15 23 0
14 2 14 10 1 13 -20 13 -4 0 20 -7 13 -7 21 0 25 5 3 10 2 10 -3 0 -5 13 -23
30 -40 28 -30 29 -30 36 -10 4 14 1 25 -10 33 -23 17 -20 21 17 20 43 -2 77
-14 77 -27 0 -6 3 -8 6 -5 4 4 2 12 -4 19 -8 10 -4 13 18 13 16 1 26 -3 24 -7
-3 -5 -9 -6 -13 -4 -4 3 -8 -4 -8 -15 -2 -17 0 -17 20 5 19 21 23 22 43 10 22
-15 58 -9 48 7 -3 5 9 10 25 10 30 1 46 4 56 9 3 1 8 3 13 4 4 1 12 5 18 9 7
4 15 0 18 -9 7 -18 0 -34 -16 -34 -7 0 -6 6 2 15 9 10 9 15 1 15 -6 0 -11 -5
-11 -11 0 -5 -4 -8 -9 -5 -5 3 -14 -1 -21 -9 -9 -10 -9 -15 -1 -15 6 0 11 5
11 12 0 6 10 2 23 -9 23 -21 58 -43 44 -28 -4 5 3 19 15 32 24 25 48 32 28 8
-7 -9 -10 -18 -7 -21 3 -3 10 3 16 14 8 15 7 23 -4 32 -8 7 -12 17 -9 22 4 6
-3 5 -15 -1 -11 -7 -21 -17 -21 -24 0 -8 4 -7 10 3 5 8 12 11 16 7 5 -4 -4
-19 -20 -33 -28 -27 -49 -26 -27 0 7 8 10 20 7 25 -4 6 7 17 23 26 36 18 52
19 46 3 -3 -7 5 -24 16 -38 l21 -25 -16 27 c-24 40 -19 47 9 13 14 -16 25 -25
25 -19 0 6 -9 19 -20 29 -11 10 -20 21 -20 24 0 3 18 15 40 25 22 11 40 23 40
28 0 17 29 7 48 -17 18 -22 21 -23 26 -8 4 10 4 14 0 11 -7 -7 -34 15 -34 28
0 13 63 64 72 58 5 -3 15 0 23 6 8 6 18 9 24 6 5 -3 8 5 6 19 -1 15 4 29 14
35 9 5 11 10 5 10 -6 0 -19 -10 -30 -22 -10 -12 -13 -18 -6 -14 21 13 13 -9
-9 -22 -42 -26 -31 1 22 58 8 9 14 21 12 27 -2 6 1 15 8 19 7 4 9 3 6 -2 -3
-6 -1 -16 4 -24 6 -10 7 -2 3 24 -4 27 -2 36 6 31 7 -5 9 1 4 19 -3 14 -2 26
2 26 13 0 8 168 -6 220 -40 147 -161 272 -321 330 -53 20 -133 37 -219 47 -48
6 -853 10 -934 5z m594 -375 c0 -5 -7 -6 -16 -3 -8 3 -12 2 -9 -4 10 -16 35
-12 35 6 0 8 5 12 10 9 6 -4 7 -11 4 -17 -5 -7 -2 -8 6 -3 10 6 12 4 7 -8 -4
-11 -2 -14 9 -10 11 4 12 9 5 16 -19 19 -12 22 49 23 33 1 60 -3 60 -8 0 -5
-4 -6 -10 -3 -5 3 -10 1 -10 -4 0 -6 7 -11 15 -11 8 0 15 5 15 10 0 6 5 10 12
10 6 0 8 -3 5 -6 -3 -4 -1 -16 5 -28 7 -11 11 -24 10 -28 -1 -5 3 -8 8 -8 14
0 13 7 -6 34 -8 13 -11 27 -6 30 12 7 80 -17 98 -36 13 -13 12 -18 -6 -41 -15
-18 -17 -25 -6 -21 8 3 18 13 21 22 11 27 24 -15 18 -63 -9 -81 -81 -112 -264
-113 l-119 -1 -1 97 c-2 144 0 154 26 129 19 -20 19 -31 0 -24 -8 4 -17 1 -21
-5 -4 -7 -3 -8 4 -4 7 4 12 2 12 -6 0 -8 5 -7 17 5 16 15 16 18 -2 37 -10 11
-25 20 -34 21 -9 1 -5 4 9 8 34 10 50 9 50 -2z m6 -606 c18 14 18 2 1 -15 -11
-11 -16 -11 -31 -1 -13 10 -14 14 -4 17 7 3 15 1 16 -4 2 -5 10 -4 18 3z m354
-3 c0 -11 -12 -10 -30 2 -12 7 -10 9 8 7 12 0 22 -5 22 -9z m-226 -13 c10 -7
16 -18 15 -23 -2 -5 -15 2 -29 14 -27 26 -17 32 14 9z m-325 -569 c9 -11 8
-15 -5 -20 -23 -9 -31 -7 -14 4 10 6 11 10 3 10 -7 0 -13 5 -13 10 0 14 16 12
29 -4z m-89 -26 c0 -5 -4 -10 -10 -10 -5 0 -10 5 -10 10 0 6 5 10 10 10 6 0
10 -4 10 -10z"/>
<path d="M1732 7634 c-7 -8 -8 -14 -3 -14 10 0 25 19 20 25 -2 1 -10 -3 -17
-11z"/>
<path d="M1760 7645 c0 -5 5 -17 10 -25 5 -8 10 -10 10 -5 0 6 -5 17 -10 25
-5 8 -10 11 -10 5z"/>
<path d="M1860 7637 c0 -3 7 -13 15 -21 13 -12 14 -20 5 -38 -11 -22 -10 -22
4 -4 20 25 20 29 -4 51 -11 10 -20 15 -20 12z"/>
<path d="M1653 7614 c3 -4 2 -14 -3 -23 -6 -13 -4 -17 11 -17 11 0 15 4 10 9
-5 5 -7 16 -4 23 3 8 -1 14 -8 14 -7 0 -9 -3 -6 -6z"/>
<path d="M1737 7605 c-11 -10 -17 -11 -19 -3 -3 8 -9 8 -24 -1 -14 -10 -15
-11 -2 -7 10 3 21 -1 25 -8 6 -11 12 -9 26 10 20 27 16 32 -6 9z"/>
<path d="M1790 7605 c0 -8 4 -15 10 -15 5 0 7 7 4 15 -4 8 -8 15 -10 15 -2 0
-4 -7 -4 -15z"/>
<path d="M1819 7606 c8 -10 9 -16 1 -21 -5 -3 -10 -12 -10 -18 0 -8 3 -8 9 2
6 9 11 10 15 2 4 -6 13 -11 19 -11 7 0 6 4 -3 10 -8 5 -16 14 -16 20 -1 5 -2
15 -3 20 0 6 -6 10 -12 10 -8 0 -8 -4 0 -14z"/>
<path d="M1910 7608 c0 -6 3 -8 7 -5 3 4 13 1 22 -6 14 -11 14 -10 2 6 -15 20
-31 22 -31 5z"/>
<path d="M1755 7590 c-4 -6 -4 -14 -1 -17 3 -4 6 0 6 8 0 12 2 12 10 -1 5 -8
12 -12 15 -9 3 4 -1 12 -9 18 -10 9 -16 9 -21 1z"/>
<path d="M1902 7570 c-7 -11 -10 -20 -6 -20 7 0 34 27 34 34 0 13 -16 5 -28
-14z"/>
<path d="M1950 7540 c-9 -6 -10 -10 -3 -10 6 0 15 5 18 10 8 12 4 12 -15 0z"/>
<path d="M2461 7211 c-8 -5 -9 -11 -3 -15 5 -3 12 1 16 9 6 17 6 18 -13 6z"/>
<path d="M2416 7202 c-2 -4 4 -13 15 -20 11 -7 19 -8 19 -2 0 5 -5 10 -11 10
-5 0 -7 5 -4 10 3 6 2 10 -4 10 -5 0 -12 -4 -15 -8z"/>
<path d="M2380 7174 c0 -1 8 -8 17 -15 14 -12 16 -12 9 0 -6 9 -5 12 5 9 8 -3
13 -11 11 -17 -1 -7 2 -10 8 -6 16 10 -7 34 -31 32 -10 -1 -19 -2 -19 -3z"/>
<path d="M2340 7141 c0 -5 7 -12 16 -15 14 -5 15 -4 4 9 -14 17 -20 19 -20 6z"/>
<path d="M2303 7110 c-12 -10 -24 -16 -29 -12 -4 4 1 -5 12 -19 11 -15 25 -24
33 -21 10 4 7 8 -10 14 l-24 9 24 20 c13 11 22 22 19 24 -2 3 -14 -4 -25 -15z"/>
<path d="M2340 7101 c0 -6 5 -13 12 -17 6 -4 8 -3 4 4 -3 6 2 13 11 15 14 4
13 5 -4 6 -13 0 -23 -3 -23 -8z"/>
<path d="M2315 7090 c-3 -5 -1 -10 4 -10 6 0 11 5 11 10 0 6 -2 10 -4 10 -3 0
-8 -4 -11 -10z"/>
<path d="M1817 7023 c4 -10 9 -11 19 -2 10 8 14 8 14 1 0 -6 -8 -16 -17 -21
-10 -6 -13 -11 -7 -11 5 0 15 5 22 12 6 6 15 9 18 5 4 -3 -1 -13 -10 -22 -9
-9 -16 -21 -16 -27 0 -6 10 2 21 16 20 25 20 29 6 44 -21 20 -57 24 -50 5z"/>
<path d="M2050 7036 c0 -2 7 -7 16 -10 8 -3 12 -2 9 4 -6 10 -25 14 -25 6z"/>
<path d="M1938 7005 c-32 -39 -39 -44 -53 -39 -8 4 -15 4 -15 1 0 -3 7 -8 16
-11 10 -4 26 6 45 27 l30 32 22 -27 c13 -16 27 -28 32 -28 6 0 4 4 -3 8 -9 7
-8 13 8 27 20 18 21 18 38 1 16 -17 16 -18 -5 -11 -13 3 -23 2 -23 -3 0 -12
56 -10 67 2 4 5 3 7 -3 3 -6 -3 -18 3 -27 14 -20 23 -31 24 -51 3 -15 -14 -17
-14 -32 0 -19 20 -30 20 -46 1z"/>
<path d="M1666 6994 c-3 -9 -4 -20 -1 -24 7 -11 35 -1 35 12 0 6 -6 5 -15 -2
-10 -8 -15 -9 -15 -2 0 6 8 16 18 21 15 9 15 10 1 11 -9 0 -20 -7 -23 -16z"/>
<path d="M2111 6993 c0 -12 2 -13 6 -5 4 10 8 10 21 0 15 -12 16 -11 3 5 -7 9
-17 17 -22 17 -5 0 -9 -8 -8 -17z"/>
<path d="M1750 6991 c0 -5 7 -15 17 -22 15 -13 15 -12 4 9 -12 23 -21 28 -21
13z"/>
<path d="M1890 6990 c0 -5 5 -10 11 -10 5 0 7 5 4 10 -3 6 -8 10 -11 10 -2 0
-4 -4 -4 -10z"/>
<path d="M1946 6974 c-5 -14 -4 -15 8 -5 10 8 16 9 19 1 3 -6 4 -5 3 2 -4 19
-23 20 -30 2z"/>
<path d="M1810 6969 c0 -5 5 -7 10 -4 6 3 10 8 10 11 0 2 -4 4 -10 4 -5 0 -10
-5 -10 -11z"/>
<path d="M1107 6473 c3 -7 6 -13 8 -13 2 0 5 6 8 13 3 8 -1 14 -8 14 -7 0 -11
-6 -8 -14z"/>
<path d="M1173 6475 c0 -8 4 -15 9 -15 4 0 8 4 8 9 0 6 -4 12 -8 15 -5 3 -9
-1 -9 -9z"/>
<path d="M1240 6486 c0 -3 9 -10 20 -16 11 -6 20 -8 20 -6 0 3 -9 10 -20 16
-11 6 -20 8 -20 6z"/>
<path d="M1333 6475 c0 -8 4 -15 9 -15 4 0 8 4 8 9 0 6 -4 12 -8 15 -5 3 -9
-1 -9 -9z"/>
<path d="M1562 6470 c-25 -23 -24 -22 -16 -44 5 -12 10 -13 25 -5 11 5 17 14
14 20 -9 13 9 11 23 -3 8 -8 12 -8 12 -1 0 13 -28 25 -41 17 -5 -3 -7 -10 -4
-15 4 -5 -1 -9 -9 -9 -23 0 -20 16 6 34 17 12 25 13 37 3 14 -11 14 -10 2 6
-17 22 -22 21 -49 -3z"/>
<path d="M1082 6462 c-9 -3 -6 -8 10 -16 12 -7 22 -17 21 -23 -3 -15 25 -12
31 4 7 16 33 17 38 1 2 -6 15 -13 29 -15 18 -2 20 -1 9 6 -8 5 -18 7 -24 4 -5
-4 -7 0 -4 8 7 17 -37 25 -47 9 -3 -6 -11 -10 -18 -10 -8 0 -8 3 1 12 7 7 12
16 12 22 0 5 -6 1 -14 -9 -11 -16 -14 -16 -22 -3 -5 8 -15 13 -22 10z"/>
<path d="M1205 6458 c8 -20 55 -53 55 -38 0 5 -4 10 -10 10 -5 0 -19 10 -30
23 -15 15 -19 17 -15 5z"/>
<path d="M1054 6435 c1 -8 6 -18 11 -22 4 -4 5 -2 1 5 -9 15 6 16 22 0 7 -7
12 -8 12 -2 0 6 -11 16 -24 22 -19 9 -24 8 -22 -3z"/>
<path d="M1155 6420 c-3 -5 -1 -10 4 -10 6 0 11 5 11 10 0 6 -2 10 -4 10 -3 0
-8 -4 -11 -10z"/>
<path d="M1315 6420 c-3 -5 -1 -10 4 -10 6 0 11 5 11 10 0 6 -2 10 -4 10 -3 0
-8 -4 -11 -10z"/>
<path d="M3817 8759 c-162 -38 -307 -189 -337 -350 -6 -33 -10 -1319 -10
-3560 0 -3175 1 -3509 16 -3523 14 -14 168 -16 1544 -16 969 0 1538 4 1554 10
l26 10 0 3522 c0 3800 3 3563 -51 3675 -49 102 -182 205 -300 232 -56 13
-2388 13 -2442 0z m2484 -120 c79 -37 133 -90 171 -167 l33 -67 3 -3497 2
-3498 -1470 0 -1470 0 2 3498 3 3497 26 55 c47 101 126 169 228 196 36 10 312
12 1231 11 l1185 -2 56 -26z"/>
<path d="M5302 8022 l-34 -3 7 -277 c4 -152 9 -322 10 -377 2 -55 4 -166 5
-247 2 -174 -6 -197 -85 -238 -42 -21 -63 -25 -140 -25 -113 0 -159 20 -192
86 -24 47 -24 47 -38 594 -5 188 -13 457 -15 478 0 11 -560 5 -567 -6 -6 -9
-5 -132 2 -362 7 -243 18 -635 19 -692 0 -35 4 -63 7 -63 3 0 5 -12 5 -27 -1
-16 5 -35 12 -44 15 -19 18 -46 7 -74 -7 -19 -7 -19 7 -1 14 18 15 18 22 0 4
-10 7 -20 7 -21 0 -2 11 -14 25 -28 14 -14 22 -30 18 -37 -4 -7 -3 -8 5 -4 6
4 14 0 17 -8 3 -9 10 -16 15 -16 4 0 28 -13 51 -29 24 -16 46 -27 50 -25 5 3
8 1 8 -4 0 -6 29 -20 65 -33 35 -12 62 -26 60 -30 -7 -11 26 -20 39 -10 13 10
45 6 59 -8 7 -7 5 -18 -7 -35 -17 -26 -36 -35 -36 -16 0 6 4 10 10 10 5 0 14
10 20 23 10 20 10 20 -3 5 -8 -10 -17 -15 -20 -11 -4 3 -2 12 5 20 8 10 8 12
-4 8 -16 -6 -19 -50 -5 -73 6 -9 15 -4 33 17 13 16 24 34 24 40 0 6 5 11 11
11 5 0 7 -6 3 -12 -6 -10 -4 -10 7 -2 8 5 20 9 27 8 6 -1 17 -2 22 -3 6 0 10
-6 10 -12 0 -8 -5 -7 -15 1 -13 11 -14 10 -9 -4 8 -20 23 -21 30 -1 4 8 10 15
16 15 5 0 7 -4 4 -9 -8 -12 27 -8 37 4 5 6 7 3 3 -7 -3 -10 -1 -18 4 -18 6 0
10 8 10 17 0 13 3 14 12 5 7 -7 8 -16 1 -24 -6 -9 -2 -20 14 -35 25 -24 33
-14 8 11 -17 17 -20 30 -4 20 8 -4 9 1 5 17 -3 13 -4 19 -1 13 3 -6 25 -9 51
-7 28 2 53 -2 62 -9 12 -10 14 -10 8 0 -11 18 39 16 54 -3 7 -8 18 -15 24 -14
7 0 6 2 -1 6 -10 3 -10 8 1 19 17 16 50 19 41 4 -4 -6 -11 -8 -16 -5 -5 4 -9
1 -9 -4 0 -6 3 -11 8 -11 13 1 42 27 36 33 -3 3 10 4 30 2 22 -2 36 1 36 8 0
8 3 8 11 0 9 -9 8 -16 -5 -28 -23 -23 -20 -32 4 -10 18 16 20 16 26 1 3 -9 10
-13 15 -11 4 3 -1 15 -13 27 -23 23 -15 33 35 42 15 2 31 7 37 11 5 3 10 2 10
-4 0 -6 9 -15 20 -21 14 -7 20 -7 20 0 0 5 -6 10 -13 10 -27 0 -13 28 16 34
17 3 32 5 34 3 7 -8 -9 -37 -18 -31 -5 3 -6 10 -3 16 4 7 2 8 -5 4 -9 -6 -9
-11 0 -22 17 -20 -7 -49 -27 -33 -10 8 -14 8 -14 0 0 -6 5 -11 11 -11 5 0 7
-5 4 -11 -4 -6 2 -5 14 3 12 7 21 16 21 21 0 4 4 5 10 2 6 -4 7 1 3 12 -6 16
-5 16 10 4 11 -9 17 -10 17 -2 0 6 -4 11 -10 11 -5 0 -10 5 -10 11 0 6 9 8 20
4 13 -4 20 -2 20 6 0 7 -3 9 -7 6 -7 -7 -33 11 -33 23 0 4 18 15 40 25 22 10
40 22 40 26 0 5 11 11 25 15 14 4 24 9 21 11 -7 7 20 33 34 33 6 0 9 4 6 9 -3
5 2 15 11 22 15 12 16 12 10 -4 -4 -10 -3 -16 2 -12 5 3 11 0 14 -7 2 -7 3 -6
2 2 -2 8 -6 23 -10 33 -5 12 -2 17 10 17 10 0 13 -5 9 -12 -5 -7 -3 -8 6 -3
10 6 10 10 -3 20 -15 11 -15 14 -2 31 11 14 14 15 9 3 -3 -10 -1 -19 4 -23 11
-6 9 24 -3 43 -6 11 -4 13 10 7 14 -5 16 -4 7 7 -7 8 -9 17 -6 20 19 19 22
179 10 557 -3 113 -9 302 -12 420 -3 118 -8 217 -11 220 -5 5 -357 7 -411 2z
m-617 -1512 c3 -5 1 -10 -4 -10 -6 0 -11 5 -11 10 0 6 2 10 4 10 3 0 8 -4 11
-10z m475 -34 c0 -3 -4 -8 -10 -11 -5 -3 -10 -1 -10 4 0 6 5 11 10 11 6 0 10
-2 10 -4z"/>
<path d="M4317 6727 c-3 -7 1 -21 9 -31 7 -11 11 -22 9 -27 -3 -4 4 -5 15 -2
22 6 26 18 8 29 -7 4 -8 3 -4 -4 4 -7 3 -12 -2 -12 -12 0 -26 30 -23 48 3 16
-5 16 -12 -1z"/>
<path d="M5666 6653 c-6 -14 -5 -15 5 -6 7 7 10 15 7 18 -3 3 -9 -2 -12 -12z"/>
<path d="M4353 6646 c0 -8 3 -15 6 -14 19 2 24 -4 11 -12 -8 -5 -10 -10 -4
-10 6 0 18 8 25 17 10 12 10 14 1 9 -7 -4 -15 -1 -18 8 -8 20 -21 21 -21 2z"/>
<path d="M5637 6653 c-10 -9 -9 -23 1 -23 5 0 9 7 9 15 0 17 -1 18 -10 8z"/>
<path d="M5650 6615 c-7 -9 -11 -17 -9 -20 3 -2 10 5 17 15 14 24 10 26 -8 5z"/>
<path d="M4395 6610 c-8 -12 20 -60 35 -60 6 0 1 9 -10 20 -11 11 -20 25 -20
32 0 6 13 -2 29 -18 16 -15 27 -34 24 -40 -2 -7 0 -15 6 -19 7 -4 9 1 5 12 -5
16 -4 16 10 -1 9 -11 16 -15 16 -9 0 5 -9 18 -20 28 -12 10 -19 24 -16 31 3 8
-1 11 -10 7 -9 -3 -13 0 -11 8 2 8 2 10 -1 6 -2 -4 -10 -3 -17 3 -10 8 -15 8
-20 0z"/>
<path d="M5580 6605 c-7 -9 -8 -15 -2 -15 5 0 12 7 16 15 3 8 4 15 2 15 -2 0
-9 -7 -16 -15z"/>
<path d="M5615 6610 c3 -5 8 -10 11 -10 2 0 4 5 4 10 0 6 -5 10 -11 10 -5 0
-7 -4 -4 -10z"/>
<path d="M5594 6583 c-9 -15 -14 -16 -26 -6 -12 10 -15 10 -15 -2 0 -8 4 -12
9 -9 4 3 8 1 8 -4 0 -6 7 -12 14 -15 11 -4 13 -1 9 10 -4 9 -2 14 3 10 6 -3
11 3 11 14 2 23 1 24 -13 2z"/>
<path d="M4470 6580 c0 -5 7 -10 15 -10 8 0 14 -3 14 -7 -3 -20 2 -34 11 -28
6 3 10 2 10 -4 0 -5 -8 -15 -17 -21 -16 -10 -15 -10 4 -5 12 3 25 1 28 -6 6
-8 10 -8 16 2 4 7 11 10 15 6 4 -3 1 -13 -6 -22 -7 -8 -9 -15 -5 -15 4 0 15
10 25 22 17 21 20 22 37 7 31 -26 73 -50 73 -41 0 5 -12 15 -27 23 -16 8 -36
22 -45 33 -10 10 -18 16 -18 11 0 -4 -8 -1 -17 6 -16 12 -17 12 -6 -2 11 -13
9 -16 -17 -16 -28 0 -36 10 -31 39 0 4 -7 4 -16 1 -11 -4 -14 -2 -9 5 3 6 -3
16 -14 22 -13 7 -20 7 -20 0z"/>
<path d="M5523 6573 c-7 -2 -13 -9 -13 -14 0 -6 4 -8 8 -5 5 3 19 -4 30 -15
12 -11 22 -15 22 -10 0 6 -9 15 -20 21 -11 6 -18 15 -15 21 7 10 6 10 -12 2z"/>
<path d="M5360 6505 c0 -5 11 -23 23 -39 18 -22 26 -26 32 -16 5 8 4 11 -2 7
-6 -4 -20 8 -32 26 -11 17 -21 28 -21 22z"/>
<path d="M5390 6503 c0 -4 5 -15 10 -23 8 -13 10 -13 10 2 0 9 -4 20 -10 23
-5 3 -10 3 -10 -2z"/>
<path d="M5336 6485 c4 -8 10 -15 14 -15 5 0 12 -9 15 -21 4 -11 9 -18 12 -15
6 6 -29 66 -39 66 -4 0 -5 -7 -2 -15z"/>
<path d="M4584 6478 c-5 -8 -2 -9 9 -5 9 3 20 1 24 -6 8 -12 73 -50 73 -42 0
4 -89 65 -95 65 -2 0 -7 -5 -11 -12z"/>
<path d="M5221 6454 c-19 -13 -27 -24 -19 -24 8 0 23 9 33 20 10 12 25 18 32
15 8 -2 11 0 8 5 -9 14 -15 12 -54 -16z"/>
<path d="M4784 6455 c-26 -18 -5 -43 25 -29 17 8 18 12 7 26 -11 15 -15 16
-32 3z m26 -15 c0 -5 -7 -10 -15 -10 -8 0 -15 5 -15 10 0 6 7 10 15 10 8 0 15
-4 15 -10z"/>
<path d="M4986 6443 c-9 -22 8 -37 28 -26 10 6 12 13 6 23 -8 13 -10 12 -10
-2 0 -10 -5 -18 -11 -18 -6 0 -8 9 -4 20 8 24 0 27 -9 3z"/>
<path d="M5030 6451 c0 -6 7 -8 15 -5 17 7 21 -11 5 -19 -6 -3 -5 -4 2 -3 19
4 16 30 -4 34 -10 2 -18 -1 -18 -7z"/>
<path d="M5092 6437 c-27 -29 -27 -34 -2 -47 11 -6 20 -7 19 -3 -3 20 2 27 12
13 8 -12 9 -10 4 7 -5 19 -3 22 11 16 14 -5 14 -3 -2 15 -10 12 -19 22 -19 22
-1 0 -11 -10 -23 -23z m18 -16 c-6 -12 -15 -21 -21 -21 -10 0 -5 13 14 38 15
19 20 7 7 -17z"/>
<path d="M4838 6426 c-15 -13 -24 -26 -22 -29 3 -3 16 6 29 19 30 30 40 30 72
-2 14 -14 27 -23 30 -20 8 8 -50 55 -67 55 -8 0 -27 -10 -42 -23z"/>
<path d="M5262 6430 c13 -20 37 -23 50 -5 15 19 8 26 -9 10 -15 -16 -18 -16
-28 -1 -17 23 -28 20 -13 -4z"/>
<path d="M5340 6430 c-9 -6 -10 -10 -3 -10 6 0 15 5 18 10 8 12 4 12 -15 0z"/>
<path d="M4750 6420 c0 -5 5 -10 11 -10 5 0 7 5 4 10 -3 6 -8 10 -11 10 -2 0
-4 -4 -4 -10z"/>
<path d="M5165 6420 c3 -5 8 -10 11 -10 2 0 4 5 4 10 0 6 -5 10 -11 10 -5 0
-7 -4 -4 -10z"/>
<path d="M5225 6419 c-4 -6 -4 -13 -1 -16 3 -4 6 -1 6 7 0 10 3 10 15 0 13
-11 14 -10 9 4 -7 18 -20 21 -29 5z"/>
<path d="M4855 6411 c-3 -5 0 -13 6 -17 8 -4 9 -3 5 4 -5 8 1 12 14 12 12 0
19 -4 16 -8 -3 -5 1 -9 9 -9 11 0 12 4 4 14 -13 15 -45 17 -54 4z"/>
<path d="M5190 6411 c0 -6 4 -12 8 -15 5 -3 9 1 9 9 0 8 -4 15 -9 15 -4 0 -8
-4 -8 -9z"/>
<path d="M5015 6400 c-4 -6 -11 -7 -17 -4 -7 4 -8 2 -4 -5 6 -8 12 -9 20 -2 7
6 16 8 19 4 4 -3 7 -1 7 5 0 15 -17 16 -25 2z"/>
<path d="M5050 6401 c0 -6 4 -13 10 -16 6 -3 7 1 4 9 -7 18 -14 21 -14 7z"/>
<path d="M5145 6400 c3 -5 8 -10 11 -10 2 0 4 5 4 10 0 6 -5 10 -11 10 -5 0
-7 -4 -4 -10z"/>
<path d="M7293 8760 c-157 -31 -305 -179 -342 -341 -7 -29 -11 -1232 -11
-3558 0 -3259 1 -3516 17 -3533 15 -17 76 -18 1554 -18 1384 0 1539 2 1553 16
15 14 16 348 16 3523 0 2241 -4 3527 -10 3560 -23 122 -125 257 -233 310 -109
53 -64 51 -1327 50 -646 -1 -1194 -5 -1217 -9z m2489 -128 c77 -37 128 -90
167 -172 l26 -55 3 -3497 2 -3498 -1470 0 -1470 0 2 3498 3 3497 26 55 c47
101 126 169 228 196 36 10 314 12 1231 11 l1185 -2 67 -33z"/>
<path d="M8173 8012 c-330 -2 -338 -3 -335 -33 1 -3 4 -118 7 -255 3 -137 8
-310 10 -384 2 -74 7 -236 10 -360 5 -192 15 -466 18 -521 1 -9 7 -15 14 -12
7 3 13 0 13 -6 0 -6 -4 -11 -9 -11 -5 0 -12 -8 -15 -17 -5 -13 0 -11 18 6 25
23 38 17 15 -6 -8 -8 -7 -13 2 -18 7 -5 10 -4 5 3 -3 6 2 15 11 21 10 6 14 11
8 11 -5 1 -1 6 10 11 19 9 18 9 -3 5 -26 -5 -72 27 -54 38 7 4 12 2 12 -4 0
-6 5 -8 13 -3 15 10 35 10 70 1 18 -4 27 -3 27 5 0 7 4 6 10 -3 8 -12 11 -13
19 -1 5 8 11 9 15 3 3 -5 -1 -15 -9 -22 -9 -7 -13 -21 -10 -31 9 -28 -3 -23
-42 16 -37 37 -59 49 -29 16 17 -18 17 -20 -1 -30 -10 -6 -13 -11 -6 -11 6 0
15 5 18 11 5 7 16 3 31 -12 l23 -22 31 27 c17 14 28 26 23 26 -5 0 -14 -5 -21
-12 -21 -21 -25 0 -4 22 29 31 68 33 81 4 10 -22 41 -24 41 -3 0 5 4 9 10 9 5
0 9 -10 7 -21 -1 -12 4 -23 11 -25 7 -1 8 0 2 3 -5 2 -10 9 -10 14 0 9 31 7
62 -6 18 -7 68 21 68 39 0 6 -5 4 -10 -4 -5 -8 -10 -10 -10 -5 0 6 -5 2 -11
-7 -5 -10 -17 -18 -25 -18 -14 0 -14 2 0 16 9 8 16 18 16 22 0 4 14 7 30 7 21
1 29 -3 26 -12 -3 -7 -1 -13 4 -13 6 0 10 6 10 14 0 17 32 16 43 -1 4 -7 16
-13 25 -12 14 0 14 2 -3 8 -18 7 -18 8 -1 18 19 11 21 55 11 404 l-4 137 32
-2 c18 -2 36 2 40 8 6 7 7 4 3 -6 -3 -10 -1 -18 4 -18 6 0 10 5 10 10 0 6 18
10 40 8 31 -1 39 -5 35 -16 -4 -12 -3 -13 10 -2 8 7 12 16 9 21 -3 5 2 6 11 3
13 -5 13 -9 3 -23 -7 -9 -17 -19 -23 -23 -6 -5 -6 -8 2 -8 6 0 20 13 29 30 13
21 21 26 27 17 7 -9 10 -9 14 1 2 6 8 10 13 7 9 -5 75 -6 137 -2 23 2 40 1 38
-3 -2 -3 1 -12 6 -20 9 -13 10 -13 8 0 -1 8 -1 20 0 25 2 21 113 24 137 4 22
-18 61 -20 92 -3 18 9 21 14 10 14 -9 0 -20 -4 -23 -10 -3 -5 -14 -10 -23 -10
-12 0 -10 4 8 17 14 10 29 17 33 15 5 -1 6 2 2 8 -3 6 -11 7 -17 4 -6 -4 -15
0 -20 7 -7 10 -7 7 -3 -8 4 -14 2 -23 -4 -23 -6 0 -11 5 -11 10 0 6 -5 10 -11
10 -8 0 -8 -5 1 -15 14 -16 4 -16 -49 1 -23 7 -21 8 20 21 24 8 52 15 62 14 9
0 15 4 12 9 -3 4 1 10 8 13 16 6 47 -16 47 -32 0 -8 -5 -7 -16 3 -23 24 -27
19 -7 -8 10 -13 20 -20 21 -15 2 5 8 7 13 3 5 -3 5 4 0 18 -5 15 -5 32 1 44 9
19 9 19 -6 0 -9 -11 -19 -16 -23 -12 -4 4 1 13 12 19 11 6 20 9 21 6 0 -2 12
8 26 23 14 15 28 25 31 22 3 -3 8 3 11 14 4 11 20 25 36 31 17 5 30 13 30 17
0 3 -6 4 -14 1 -8 -3 -3 11 12 34 14 21 33 39 41 39 10 0 12 3 6 8 -13 9 -13
31 0 40 6 4 11 18 12 32 8 103 8 131 1 184 -23 176 -178 335 -378 390 -138 38
-239 43 -817 38z m339 -377 c9 -4 23 -3 30 1 24 15 36 12 47 -14 8 -17 9 -28
1 -36 -5 -5 -10 -17 -10 -25 0 -9 8 -1 16 16 13 27 14 36 4 48 -10 12 -10 15
1 16 8 1 19 0 24 -1 6 -2 25 -2 43 -1 29 1 32 -1 24 -16 -5 -10 -7 -24 -5 -30
3 -7 0 -13 -6 -13 -6 0 -11 5 -11 11 0 5 -5 7 -11 3 -8 -5 -6 -10 5 -16 20
-11 39 -1 32 17 -3 8 1 18 8 25 18 14 60 -5 80 -35 13 -20 12 -24 -5 -38 -10
-9 -20 -15 -20 -12 -5 20 -7 26 -8 35 0 6 -6 10 -12 10 -8 0 -8 -5 1 -15 7 -8
9 -15 5 -15 -4 0 -2 -7 5 -15 12 -14 15 -14 31 1 11 10 22 14 26 11 4 -4 -1
-13 -11 -20 -16 -11 -16 -15 -3 -25 36 -30 -22 -94 -100 -110 -26 -6 -99 -11
-160 -12 l-113 -1 -1 53 c-3 123 1 159 16 170 6 5 4 8 -5 8 -9 0 -16 8 -16 18
0 13 8 17 41 16 22 -1 48 -5 57 -9z m298 -125 c0 -5 -2 -10 -4 -10 -3 0 -8 5
-11 10 -3 6 -1 10 4 10 6 0 11 -4 11 -10z m-610 -1025 c0 -1 -8 -10 -19 -19
-17 -15 -19 -15 -25 -1 -3 9 -2 13 4 10 6 -3 10 -2 10 3 0 5 7 9 15 9 8 0 15
-1 15 -2z m36 -7 c-4 6 -2 12 3 12 6 0 11 -4 11 -10 0 -5 5 -10 11 -10 5 0 8
4 5 8 -3 5 1 9 9 9 18 0 19 -11 2 -25 -20 -17 -67 -3 -67 20 0 6 7 5 17 -3 11
-10 14 -10 9 -1z"/>
<path d="M8445 7630 c-16 -7 -17 -9 -3 -9 9 -1 20 4 23 9 7 11 7 11 -20 0z"/>
<path d="M8623 7627 c18 -15 24 -32 7 -22 -5 3 -10 1 -10 -5 0 -14 22 -8 27 7
3 7 -6 17 -19 23 -21 10 -21 10 -5 -3z"/>
<path d="M8456 7603 c-14 -14 -24 -28 -21 -31 2 -3 14 7 26 22 11 14 25 24 30
21 5 -4 9 -1 9 4 0 18 -16 12 -44 -16z"/>
<path d="M8536 7608 c-12 -16 -16 -18 -12 -5 3 9 1 17 -5 17 -7 0 -9 -10 -5
-25 5 -19 3 -23 -9 -19 -8 4 -15 4 -15 1 0 -3 6 -7 14 -10 9 -4 22 6 34 25 12
19 22 26 26 19 4 -6 0 -18 -8 -27 -9 -8 -16 -20 -16 -26 0 -6 9 -1 20 12 12
13 18 30 15 38 -3 7 -5 16 -5 18 0 12 -20 1 -34 -18z"/>
<path d="M8660 7619 c0 -5 5 -7 10 -4 6 3 10 8 10 11 0 2 -4 4 -10 4 -5 0 -10
-5 -10 -11z"/>
<path d="M8713 7595 c0 -10 5 -11 18 -4 14 7 21 4 33 -13 9 -12 16 -17 16 -11
0 14 -27 36 -49 40 -10 1 -18 -4 -18 -12z"/>
<path d="M8470 7579 c-7 -11 -9 -23 -6 -27 3 -3 6 0 6 6 0 6 7 18 16 26 8 9
11 16 5 16 -6 0 -15 -9 -21 -21z"/>
<path d="M8610 7572 c0 -4 12 -8 28 -9 23 -1 24 -1 7 7 -26 11 -35 12 -35 2z"/>
<path d="M8694 7559 c-5 -9 -2 -10 9 -6 9 3 18 2 21 -4 2 -5 3 -4 2 3 -3 17
-23 21 -32 7z"/>
<path d="M9327 7295 c-6 -15 10 -32 20 -21 4 3 1 6 -6 6 -7 0 -9 5 -6 10 4 6
11 7 17 4 7 -4 8 -2 4 4 -10 16 -23 15 -29 -3z"/>
<path d="M9316 7257 c3 -10 9 -15 12 -12 3 3 0 11 -7 18 -10 9 -11 8 -5 -6z"/>
<path d="M9303 7215 c-3 -9 -3 -19 1 -22 3 -4 6 1 6 10 0 8 6 18 13 20 9 4 9
6 -1 6 -7 1 -15 -6 -19 -14z"/>
<path d="M9265 7210 c-3 -5 -3 -10 2 -10 4 0 1 -5 -7 -11 -12 -9 -12 -10 3 -5
12 4 17 2 14 -6 -2 -7 -12 -12 -21 -10 -9 2 -23 -1 -32 -6 -15 -8 -15 -10 0
-15 10 -4 15 -3 11 3 -3 6 1 10 10 10 13 0 14 -4 4 -22 -8 -17 -4 -15 15 7 29
34 31 41 15 51 -8 4 -7 9 2 15 10 6 10 9 2 9 -6 0 -15 -4 -18 -10z"/>
<path d="M9194 7128 c-4 -7 -3 -8 4 -4 7 4 12 2 12 -3 0 -6 5 -11 10 -11 15 0
12 17 -5 23 -8 4 -17 1 -21 -5z"/>
<path d="M9180 7102 c0 -4 10 -9 22 -9 18 -2 20 0 8 7 -18 12 -30 13 -30 2z"/>
<path d="M8945 7032 c-8 -21 -3 -22 17 -2 14 13 15 17 3 17 -8 0 -17 -7 -20
-15z"/>
<path d="M8913 7033 c-7 -2 -13 -9 -13 -14 0 -6 4 -8 9 -4 5 3 12 -3 14 -12 3
-10 4 -6 4 10 -1 15 -2 27 -2 26 0 0 -6 -3 -12 -6z"/>
<path d="M8960 7005 c-32 -33 -36 -34 -47 -18 -7 9 -13 12 -13 6 0 -17 27 -36
35 -23 3 6 11 7 17 4 6 -4 8 -2 5 3 -8 13 20 39 30 29 4 -4 1 -11 -7 -17 -12
-7 -10 -8 7 -6 12 2 26 7 30 12 5 4 3 5 -3 2 -7 -4 -15 0 -18 9 -9 24 0 29 19
10 23 -23 32 -20 10 4 -10 11 -21 20 -25 20 -3 0 -22 -16 -40 -35z"/>
<path d="M8811 7021 c-1 -8 -7 -11 -17 -7 -9 3 -12 2 -9 -5 4 -6 13 -8 21 -5
14 5 29 -9 17 -17 -5 -2 -2 -2 5 -1 6 2 12 0 12 -5 0 -18 -15 -20 -37 -6 -13
9 -23 11 -23 6 0 -5 10 -13 23 -17 49 -17 63 -10 42 22 -8 13 -11 24 -6 24 13
0 41 -41 35 -52 -3 -4 2 -5 11 -1 13 5 14 7 3 14 -7 5 -9 9 -4 9 5 0 -1 9 -14
20 -13 12 -29 19 -36 16 -7 -3 -15 0 -18 7 -3 8 -5 8 -5 -2z"/>
<path d="M8470 7010 c0 -5 5 -10 10 -10 6 0 21 -10 33 -22 26 -26 48 -30 55
-9 3 9 -1 11 -15 7 -13 -4 -25 0 -33 9 -19 23 -50 38 -50 25z"/>
<path d="M8540 7005 c-9 -10 -9 -15 -1 -15 6 0 11 5 11 10 0 6 5 10 11 10 5 0
7 -4 4 -10 -3 -6 1 -7 10 -3 13 5 14 7 3 14 -18 12 -24 11 -38 -6z"/>
<path d="M8682 6993 c-26 -33 -27 -39 -6 -47 14 -5 15 -4 5 8 -10 11 -7 17 11
30 12 9 18 16 13 17 -6 0 -1 4 10 9 14 6 16 9 4 9 -8 1 -25 -11 -37 -26z"/>
<path d="M8450 6995 c0 -8 4 -15 10 -15 5 0 7 7 4 15 -4 8 -8 15 -10 15 -2 0
-4 -7 -4 -15z"/>
<path d="M8646 6986 c-11 -18 -13 -27 -4 -32 6 -4 8 -3 5 3 -4 5 3 20 14 31
11 12 16 22 11 22 -6 0 -17 -11 -26 -24z"/>
<path d="M8760 6994 c0 -8 -4 -13 -9 -10 -10 6 -25 -24 -16 -32 3 -3 5 0 5 6
0 7 5 12 11 12 5 0 8 -4 5 -8 -2 -4 5 -9 17 -9 19 -2 19 0 5 8 -10 5 -14 17
-11 29 3 11 3 20 -1 20 -3 0 -6 -7 -6 -16z"/>
<path d="M8708 6979 c-9 -9 -14 -20 -11 -23 4 -3 13 3 21 15 18 26 12 31 -10
8z"/>
<path d="M8580 6979 c0 -5 5 -7 10 -4 6 3 10 8 10 11 0 2 -4 4 -10 4 -5 0 -10
-5 -10 -11z"/>
<path d="M8463 6965 c-10 -8 -13 -15 -7 -15 5 0 15 5 22 12 8 8 12 8 12 1 0
-6 7 -13 14 -16 10 -4 13 -1 10 8 -8 21 -30 25 -51 10z"/>
<path d="M8600 6961 c0 -5 7 -11 14 -14 10 -4 13 -1 9 9 -6 15 -23 19 -23 5z"/>
<path d="M7930 6470 c0 -5 5 -10 11 -10 5 0 7 5 4 10 -3 6 -8 10 -11 10 -2 0
-4 -4 -4 -10z"/>
<path d="M8095 6470 c-3 -5 -1 -10 4 -10 6 0 11 5 11 10 0 6 -2 10 -4 10 -3 0
-8 -4 -11 -10z"/>
<path d="M8116 6455 c-10 -27 -7 -34 17 -45 20 -10 20 -10 5 3 -10 8 -18 20
-18 26 0 8 5 7 16 -3 24 -24 30 -19 8 7 -10 12 -19 23 -20 25 -1 2 -4 -4 -8
-13z"/>
<path d="M8380 6461 c0 -5 7 -11 15 -15 8 -3 15 -1 15 3 0 5 -7 11 -15 15 -8
3 -15 1 -15 -3z"/>
<path d="M8015 6450 c3 -5 8 -10 11 -10 2 0 4 5 4 10 0 6 -5 10 -11 10 -5 0
-7 -4 -4 -10z"/>
<path d="M8320 6430 c-14 -10 -21 -22 -17 -26 4 -4 7 -2 7 5 0 7 4 10 9 7 5
-3 11 1 15 9 3 8 13 15 21 15 15 0 15 -1 1 -16 -24 -23 -19 -30 5 -8 21 19 21
18 40 -5 18 -22 27 -18 11 5 -8 12 -46 34 -59 34 -4 0 -19 -9 -33 -20z"/>
<path d="M8427 6432 c1 -8 3 -16 3 -18 0 -2 4 -4 8 -4 4 0 9 10 9 22 2 16 0
19 -6 9 -5 -7 -11 -9 -13 -5 -3 5 -3 3 -1 -4z"/>
<path d="M8175 6430 c-3 -5 -1 -10 4 -10 6 0 11 5 11 10 0 6 -2 10 -4 10 -3 0
-8 -4 -11 -10z"/>
<path d="M8074 6408 c-15 -18 -16 -20 -1 -9 14 11 20 11 35 0 16 -13 16 -13 2
6 -8 11 -15 21 -16 23 0 1 -9 -8 -20 -20z"/>
<path d="M8245 6420 c3 -5 8 -10 11 -10 2 0 4 5 4 10 0 6 -5 10 -11 10 -5 0
-7 -4 -4 -10z"/>
<path d="M7983 6413 c-7 -2 -13 -9 -13 -15 0 -7 4 -7 13 1 10 8 17 7 27 -2 12
-10 12 -9 1 6 -7 9 -14 17 -15 16 0 0 -7 -3 -13 -6z"/>
<path d="M8270 6405 c0 -8 2 -15 4 -15 2 0 6 7 10 15 3 8 1 15 -4 15 -6 0 -10
-7 -10 -15z"/>
</g>
</svg>
